<svg xmlns="http://www.w3.org/2000/svg" xmlns:svg="http://www.w3.org/2000/svg" xmlns:xlink="http://www.w3.org/1999/xlink" id="svg2" width="16" height="16" version="1.1"><defs id="defs4"><linearGradient id="linearGradient4198"><stop id="stop4200" offset="0" style="stop-color:#14733c;stop-opacity:1"/><stop style="stop-color:#14733c;stop-opacity:1" id="stop4202" offset=".5"/><stop id="stop4204" offset="1" style="stop-color:#14733c;stop-opacity:1"/></linearGradient><linearGradient id="linearGradient3929-5" x1="388.637" x2="388.637" y1="478.188" y2="459.248" gradientUnits="userSpaceOnUse" xlink:href="#linearGradient10798-1-9-3-7-6-8-9-0-9-1"/><linearGradient id="linearGradient10798-1-9-3-7-6-8-9-0-9-1"><stop style="stop-color:#a17748;stop-opacity:1" id="stop10800-5-2-1-8-20-6-4-9-8-2" offset="0"/><stop id="stop10806-6-8-5-3-9-24-8-4-3-2" offset=".5" style="stop-color:#8e5c24;stop-opacity:1"/><stop style="stop-color:#c7af93;stop-opacity:1" id="stop10802-1-5-3-0-4-8-4-2-9-2" offset="1"/></linearGradient><mask id="mask17098" maskUnits="userSpaceOnUse"><g style="fill:#fff" id="g17100" transform="translate(-0.696415,-25.515546)"><g style="fill:#fff;stroke:#fff;display:inline" id="g17102" transform="matrix(0.27903303,0,0,0.27903303,-148.50157,940.95641)"><g style="fill:#fff;stroke:#fff" id="g17104" transform="matrix(1.1835826,0,0,1.1835826,-7.5789257,-74.544918)"><g style="fill:#fff;stroke:#fff;display:inline" id="g17106" transform="matrix(3.0279299,0,0,3.0279299,456.02712,-2782.985)"><g id="g17108" transform="matrix(0.27903303,0,0,0.27903303,-129.51159,939.94639)" style="fill:#fff;stroke:#fff;display:inline"><rect id="rect17110" width="54.015" height="7.168" x="464.144" y="363.231" style="fill:#fff;fill-opacity:1;stroke:#fff"/><g style="fill:#fff;stroke:#fff" id="g17112" transform="matrix(1.1835826,0,0,1.1835826,-75.612218,-74.709882)"><rect id="rect17114" width="15" height="16.625" x="463.933" y="365.467" rx="2.625" ry="2.625" style="fill:#fff;fill-opacity:1;stroke:#fff;stroke-width:3.02792978;stroke-linecap:round;stroke-linejoin:round;stroke-miterlimit:4;stroke-opacity:1;stroke-dasharray:none;stroke-dashoffset:0;display:inline"/><path id="path17116" d="m 463.24874,371.54269 31.10344,0 c 1.45425,0 2.625,1.17075 2.625,2.625 l 0,14.39926 c 0,1.45425 -1.21199,2.28111 -2.625,2.625 l -31.10344,7.56983 c -1.413,0.34389 -2.625,-1.17075 -2.625,-2.625 l 0,-21.96909 c 0,-1.45425 1.17075,-2.625 2.625,-2.625 z" style="fill:#fff;fill-opacity:1;stroke:#fff;stroke-width:3.02792978;stroke-linecap:round;stroke-linejoin:round;stroke-miterlimit:4;stroke-opacity:1;stroke-dasharray:none;stroke-dashoffset:0"/><path id="path17118" d="m 463.24874,371.6096 31.10344,0 c 1.45425,0 2.625,1.17075 2.625,2.625 l 0,14.33235 c 0,1.45425 -1.21199,2.28111 -2.625,2.625 l -31.10344,7.56983 c -1.413,0.34389 -2.625,-1.17075 -2.625,-2.625 l 0,-21.90218 c 0,-1.45425 1.17075,-2.625 2.625,-2.625 z" style="fill:#fff;stroke:#fff;stroke-width:3.02792978;stroke-linecap:round;stroke-linejoin:round;stroke-miterlimit:4;stroke-opacity:1;stroke-dasharray:none;stroke-dashoffset:0;display:inline"/><path id="path17120" d="m 462.26171,371.52622 20.09375,0" style="fill:#fff;stroke:#fff;stroke-width:3.02792978;stroke-linecap:butt;stroke-linejoin:miter;stroke-miterlimit:4;stroke-opacity:1;stroke-dasharray:none"/><g style="fill:#fff;stroke:#fff" id="g17122" mask="url(#mask4917-4-0)"><rect style="opacity:.5;fill:#fff;fill-opacity:1;stroke:#fff;stroke-width:2.38039374;stroke-linecap:round;stroke-linejoin:round;stroke-miterlimit:4;stroke-opacity:1;stroke-dasharray:none;stroke-dashoffset:0;display:inline;filter:url(#filter4929-9)" id="rect17124" width="30.9" height="22.649" x="860.685" y="542.897" rx="2.625" ry="3.718" transform="matrix(1,0,-0.70828043,0.70593118,0,0)"/></g><rect id="rect17126" width="30.237" height="21.543" x="860.685" y="543.433" rx="2.625" ry="3.718" transform="matrix(1,0,-0.70828042,0.70593119,0,0)" style="fill:#fff;fill-opacity:1;stroke:#fff;stroke-width:3.60383272;stroke-linecap:round;stroke-linejoin:round;stroke-miterlimit:4;stroke-opacity:1;stroke-dasharray:none;stroke-dashoffset:0;display:inline"/></g><path id="path17128" d="m 492.81474,377.56576 -14.33522,0 0,3.5838 2.02645,0 0,-1.47461 11.8608,0 z" style="fill:#fff;fill-opacity:1;stroke:#fff"/></g></g></g></g><path id="path17130" d="m 5.7026894,1044.9373 c -0.185041,-0.018 -0.402396,-0.059 -0.576929,-0.1108 -0.270837,-0.079 -0.243851,0.015 -0.243851,-0.8593 0,-0.4579 0.0077,-0.7598 0.01951,-0.7646 0.01072,0 0.0317,0 0.04665,0.013 0.04847,0.037 0.294579,0.1623 0.376062,0.1926 0.186482,0.069 0.46629,0.1032 0.663393,0.083 0.436936,-0.047 0.733026,-0.2945 0.881951,-0.7389 0.120095,-0.3583 0.114052,-0.2194 0.12641,-2.9086 l 0.01137,-2.4738 0.829393,0 0.829395,0 0.0062,2.3061 c 0.0064,2.384 -5.49e-4,2.6629 -0.0777,3.0973 -0.156267,0.8809 -0.598495,1.5436 -1.254122,1.8796 -0.440731,0.2258 -1.0806,0.337 -1.637678,0.2843 z" style="fill:#fff;fill-opacity:1;display:inline"/></g></mask><mask id="mask4917-4-0" maskUnits="userSpaceOnUse"><path style="fill:#fff;fill-opacity:1;stroke:#fff;stroke-width:2;stroke-linecap:round;stroke-linejoin:round;stroke-miterlimit:4;stroke-opacity:1;stroke-dashoffset:0;display:inline" id="path4919-6-6" d="m 462.77563,373.22885 29.11636,0 c 1.45425,0 2.625,1.17075 2.625,2.625 l 0,18.76896 c 0,1.45425 -1.17412,2.52598 -2.625,2.625 l -29.11636,1.98708 c -1.45088,0.099 -2.625,-1.17075 -2.625,-2.625 l 0,-20.75604 c 0,-1.45425 1.17075,-2.625 2.625,-2.625 z"/></mask><filter id="filter4929-9" width="1.275" height="1.755" x="-.138" y="-.377" color-interpolation-filters="sRGB"><feGaussianBlur id="feGaussianBlur4931-98" stdDeviation="3.562"/></filter><mask id="mask17064" maskUnits="userSpaceOnUse"><g style="fill:#fff" id="g17066" transform="matrix(2.4682548,0,0,2.4682548,-151.3224,-1556.3662)"><g style="fill:#fff;stroke:#fff;display:inline" id="g17068" transform="matrix(0.27903303,0,0,0.27903303,-148.50157,940.95641)"><g style="fill:#fff;stroke:#fff" id="g17070" transform="matrix(1.1835826,0,0,1.1835826,-7.5789257,-74.544918)"><g style="fill:#fff;stroke:#fff;display:inline" id="g17072" transform="matrix(3.0279299,0,0,3.0279299,456.02712,-2782.985)"><g id="g17074" transform="matrix(0.27903303,0,0,0.27903303,-129.51159,939.94639)" style="fill:#fff;stroke:#fff;display:inline"><rect id="rect17076" width="54.015" height="7.168" x="464.144" y="363.231" style="fill:#fff;fill-opacity:1;stroke:#fff"/><g style="fill:#fff;stroke:#fff" id="g17078" transform="matrix(1.1835826,0,0,1.1835826,-75.612218,-74.709882)"><rect id="rect17080" width="15" height="16.625" x="463.933" y="365.467" rx="2.625" ry="2.625" style="fill:#fff;fill-opacity:1;stroke:#fff;stroke-width:3.02792978;stroke-linecap:round;stroke-linejoin:round;stroke-miterlimit:4;stroke-opacity:1;stroke-dasharray:none;stroke-dashoffset:0;display:inline"/><path id="path17082" d="m 463.24874,371.54269 31.10344,0 c 1.45425,0 2.625,1.17075 2.625,2.625 l 0,14.39926 c 0,1.45425 -1.21199,2.28111 -2.625,2.625 l -31.10344,7.56983 c -1.413,0.34389 -2.625,-1.17075 -2.625,-2.625 l 0,-21.96909 c 0,-1.45425 1.17075,-2.625 2.625,-2.625 z" style="fill:#fff;fill-opacity:1;stroke:#fff;stroke-width:3.02792978;stroke-linecap:round;stroke-linejoin:round;stroke-miterlimit:4;stroke-opacity:1;stroke-dasharray:none;stroke-dashoffset:0"/><path id="path17084" d="m 463.24874,371.6096 31.10344,0 c 1.45425,0 2.625,1.17075 2.625,2.625 l 0,14.33235 c 0,1.45425 -1.21199,2.28111 -2.625,2.625 l -31.10344,7.56983 c -1.413,0.34389 -2.625,-1.17075 -2.625,-2.625 l 0,-21.90218 c 0,-1.45425 1.17075,-2.625 2.625,-2.625 z" style="fill:#fff;stroke:#fff;stroke-width:3.02792978;stroke-linecap:round;stroke-linejoin:round;stroke-miterlimit:4;stroke-opacity:1;stroke-dasharray:none;stroke-dashoffset:0;display:inline"/><path id="path17086" d="m 462.26171,371.52622 20.09375,0" style="fill:#fff;stroke:#fff;stroke-width:3.02792978;stroke-linecap:butt;stroke-linejoin:miter;stroke-miterlimit:4;stroke-opacity:1;stroke-dasharray:none"/><g style="fill:#fff;stroke:#fff" id="g17088" mask="url(#mask4917-4-0)"><rect style="opacity:.5;fill:#fff;fill-opacity:1;stroke:#fff;stroke-width:2.38039374;stroke-linecap:round;stroke-linejoin:round;stroke-miterlimit:4;stroke-opacity:1;stroke-dasharray:none;stroke-dashoffset:0;display:inline;filter:url(#filter4929-9)" id="rect17090" width="30.9" height="22.649" x="860.685" y="542.897" rx="2.625" ry="3.718" transform="matrix(1,0,-0.70828043,0.70593118,0,0)"/></g><rect id="rect17092" width="30.237" height="21.543" x="860.685" y="543.433" rx="2.625" ry="3.718" transform="matrix(1,0,-0.70828042,0.70593119,0,0)" style="fill:#fff;fill-opacity:1;stroke:#fff;stroke-width:3.60383272;stroke-linecap:round;stroke-linejoin:round;stroke-miterlimit:4;stroke-opacity:1;stroke-dasharray:none;stroke-dashoffset:0;display:inline"/></g><path id="path17094" d="m 492.81474,377.56576 -14.33522,0 0,3.5838 2.02645,0 0,-1.47461 11.8608,0 z" style="fill:#fff;fill-opacity:1;stroke:#fff"/></g></g></g></g><path id="path17096" d="m 5.7026894,1044.9373 c -0.185041,-0.018 -0.402396,-0.059 -0.576929,-0.1108 -0.270837,-0.079 -0.243851,0.015 -0.243851,-0.8593 0,-0.4579 0.0077,-0.7598 0.01951,-0.7646 0.01072,0 0.0317,0 0.04665,0.013 0.04847,0.037 0.294579,0.1623 0.376062,0.1926 0.186482,0.069 0.46629,0.1032 0.663393,0.083 0.436936,-0.047 0.733026,-0.2945 0.881951,-0.7389 0.120095,-0.3583 0.114052,-0.2194 0.12641,-2.9086 l 0.01137,-2.4738 0.829393,0 0.829395,0 0.0062,2.3061 c 0.0064,2.384 -5.49e-4,2.6629 -0.0777,3.0973 -0.156267,0.8809 -0.598495,1.5436 -1.254122,1.8796 -0.440731,0.2258 -1.0806,0.337 -1.637678,0.2843 z" style="fill:#fff;fill-opacity:1;display:inline"/></g></mask><mask id="mask18860" maskUnits="userSpaceOnUse"><path style="fill:#fff;fill-opacity:1;stroke:#fff;stroke-width:2;stroke-linecap:round;stroke-linejoin:round;stroke-miterlimit:4;stroke-opacity:1;stroke-dashoffset:0;display:inline" id="path18862" d="m 462.77563,373.22885 29.11636,0 c 1.45425,0 2.625,1.17075 2.625,2.625 l 0,18.76896 c 0,1.45425 -1.17412,2.52598 -2.625,2.625 l -29.11636,1.98708 c -1.45088,0.099 -2.625,-1.17075 -2.625,-2.625 l 0,-20.75604 c 0,-1.45425 1.17075,-2.625 2.625,-2.625 z"/></mask><linearGradient id="linearGradient7540-2-3-8"><stop id="stop7542-8-7-5" offset="0" style="stop-color:#fff;stop-opacity:.502"/><stop style="stop-color:#fff;stop-opacity:1" id="stop7544-8-2-0" offset=".476"/><stop style="stop-color:#fff;stop-opacity:0" id="stop7546-1-7-9" offset=".5"/><stop id="stop7548-98-9-2" offset="1" style="stop-color:#fff;stop-opacity:0"/></linearGradient><linearGradient id="linearGradient7540-6-33-6-3"><stop id="stop7542-4-4-3-3" offset="0" style="stop-color:#fff;stop-opacity:.502"/><stop style="stop-color:#fff;stop-opacity:1" id="stop7544-5-3-8-5" offset=".476"/><stop style="stop-color:#fff;stop-opacity:0" id="stop7546-2-9-1-2" offset=".5"/><stop id="stop7548-9-2-0-9" offset="1" style="stop-color:#fff;stop-opacity:0"/></linearGradient><linearGradient id="linearGradient6744" x1="-31.957" x2="-31.957" y1="1042.254" y2="1039.602" gradientTransform="matrix(1.4617999,0,0,1.4617999,38.859115,-483.60399)" gradientUnits="userSpaceOnUse" xlink:href="#linearGradient6738"/><linearGradient id="linearGradient6738"><stop style="stop-color:#5481b6;stop-opacity:1" id="stop6740" offset="0"/><stop id="stop5729" offset=".5" style="stop-color:#1c65a2;stop-opacity:1"/><stop style="stop-color:#5286ba;stop-opacity:1" id="stop6742" offset="1"/></linearGradient><linearGradient id="linearGradient10798-1-9-3-7-6-8-9-0-9-1-3"><stop style="stop-color:#4f9e55;stop-opacity:1" id="stop10800-5-2-1-8-20-6-4-9-8-2-6" offset="0"/><stop id="stop10806-6-8-5-3-9-24-8-4-3-2-7" offset=".5" style="stop-color:#418a4d;stop-opacity:1"/><stop style="stop-color:#91c168;stop-opacity:1" id="stop10802-1-5-3-0-4-8-4-2-9-2-5" offset="1"/></linearGradient></defs><metadata id="metadata7"/><g id="layer1" transform="translate(0,-1036.3622)"><ellipse id="path10796-2-6-2" cx="7.001" cy="1044.357" rx="4.591" ry="4.597" style="font-style:normal;font-weight:400;font-size:medium;line-height:125%;font-family:Sans;letter-spacing:0;word-spacing:0;display:inline;fill:#a36f43;fill-opacity:1;stroke:#925e32;stroke-width:.76525658;stroke-linecap:round;stroke-linejoin:round;stroke-miterlimit:4;stroke-dasharray:none;stroke-dashoffset:0;stroke-opacity:1"/><text style="font-style:normal;font-weight:400;font-size:7.38322639px;line-height:125%;font-family:sans-serif;letter-spacing:0;word-spacing:0;fill:#fff;fill-opacity:1;stroke:none;stroke-width:1px;stroke-linecap:butt;stroke-linejoin:miter;stroke-opacity:1" id="text4207" x="4.728" y="1023.691" transform="scale(0.97763713,1.0228744)" xml:space="preserve"><tspan id="tspan4209" x="4.728" y="1023.691" style="font-style:normal;font-variant:normal;font-weight:700;font-stretch:normal;font-family:sans-serif;-inkscape-font-specification:'sans-serif Bold';fill:#fff;fill-opacity:1">P</tspan></text></g></svg>